<svg width="100" height="100" viewBox="0 0 100 100" fill="none" xmlns="http://www.w3.org/2000/svg">
<path d="M66.9557 36.6616C66.9557 34.2477 66.4815 31.92 65.5332 29.6785C64.628 27.3939 63.3779 25.3894 61.783 23.6652C60.1881 21.8978 58.3129 20.4969 56.1576 19.4624C54.0455 18.3847 51.7824 17.8459 49.3685 17.8459C46.9545 17.8459 44.6699 18.2554 42.5146 19.0744C40.4024 19.8934 38.5489 21.1004 36.9539 22.6953C35.4021 24.2902 34.1736 26.2731 33.2684 28.6439C32.3631 30.9716 31.9105 33.6442 31.9105 36.6616C31.9105 39.5497 32.3631 42.1577 33.2684 44.4854C34.1736 46.77 35.4021 48.7313 36.9539 50.3693C38.5489 52.0074 40.4024 53.279 42.5146 54.1842C44.6699 55.0463 46.9545 55.4774 49.3685 55.4774C51.7824 55.4774 54.0455 54.9601 56.1576 53.9256C58.3129 52.8479 60.1881 51.447 61.783 49.7228C63.3779 47.9554 64.628 45.951 65.5332 43.7095C66.4815 41.4249 66.9557 39.0756 66.9557 36.6616ZM84.7369 63.1718C84.7369 68.0428 83.8101 72.612 81.9566 76.8795C80.103 81.147 77.5598 84.8757 74.3268 88.0655C71.137 91.2554 67.3868 93.7771 63.0762 95.6306C58.8087 97.4842 54.2394 98.411 49.3685 98.411L40.5102 98.2816V80.6297L49.2391 80.7591C51.9979 80.7591 54.3472 80.3927 56.287 79.6599C58.2267 78.9702 59.8648 78.0003 61.201 76.7502C62.5373 75.5432 63.5934 74.1423 64.3693 72.5474C65.1884 70.9524 65.8349 69.2713 66.3091 67.504C65.6194 68.6247 64.628 69.5515 63.3348 70.2843C62.0416 70.974 60.5976 71.5344 59.0026 71.9654C57.4508 72.4396 55.8128 72.7629 54.0886 72.9353C52.4074 73.1077 50.8341 73.194 49.3685 73.194C44.4975 73.194 39.9067 72.3534 35.5961 70.6723C31.3286 68.9911 27.5784 66.5987 24.3454 63.4951C21.1556 60.3484 18.6339 56.5119 16.7803 51.9858C14.9268 47.4597 14 42.3516 14 36.6616C14 31.4458 14.9268 26.5964 16.7803 22.1134C18.6339 17.6303 21.1556 13.7508 24.3454 10.4748C27.5784 7.1987 31.3286 4.63389 35.5961 2.78034C39.9067 0.926779 44.4975 0 49.3685 0C51.61 0 53.8299 0.280189 56.0283 0.840567C58.2267 1.40094 60.3605 2.17685 62.4296 3.16829C64.4987 4.15973 66.46 5.32359 68.3135 6.65987C70.2102 7.99616 71.9775 9.44021 73.6156 10.992L80.4694 2.78034H84.7369V63.1718Z" fill="#007FFF"/>
<path d="M68.5447 38.2505C68.5447 35.8366 68.0705 33.5088 67.1222 31.2673C66.217 28.9827 64.9669 26.9783 63.372 25.2541C61.777 23.4867 59.9019 22.0858 57.7466 21.0512C55.6344 19.9736 53.3714 19.4347 50.9574 19.4347C48.5435 19.4347 46.2589 19.8443 44.1036 20.6633C41.9914 21.4823 40.1378 22.6892 38.5429 24.2842C36.9911 25.8791 35.7626 27.862 34.8574 30.2328C33.9521 32.5605 33.4995 35.2331 33.4995 38.2505C33.4995 41.1386 33.9521 43.7465 34.8574 46.0742C35.7626 48.3589 36.9911 50.3202 38.5429 51.9582C40.1378 53.5962 41.9914 54.8679 44.1036 55.7731C46.2589 56.6352 48.5435 57.0663 50.9574 57.0663C53.3714 57.0663 55.6344 56.549 57.7466 55.5145C59.9019 54.4368 61.777 53.0359 63.372 51.3116C64.9669 49.5443 66.217 47.5398 67.1222 45.2983C68.0705 43.0137 68.5447 40.6644 68.5447 38.2505ZM86.3259 64.7607C86.3259 69.6317 85.3991 74.2009 83.5456 78.4684C81.692 82.7359 79.1488 86.4645 75.9158 89.6544C72.726 92.8442 68.9757 95.3659 64.6651 97.2195C60.3977 99.0731 55.8284 99.9998 50.9574 99.9998L42.0992 99.8705V82.2186L50.8281 82.3479C53.5869 82.3479 55.9362 81.9815 57.876 81.2487C59.8157 80.559 61.4538 79.5891 62.79 78.3391C64.1263 77.1321 65.1824 75.7312 65.9583 74.1362C66.7773 72.5413 67.4239 70.8602 67.8981 69.0928C67.2084 70.2136 66.217 71.1404 64.9238 71.8732C63.6306 72.5629 62.1866 73.1232 60.5916 73.5543C59.0398 74.0285 57.4018 74.3518 55.6775 74.5242C53.9964 74.6966 52.423 74.7828 50.9574 74.7828C46.0865 74.7828 41.4957 73.9423 37.1851 72.2611C32.9176 70.58 29.1674 68.1876 25.9344 65.084C22.7446 61.9372 20.2229 58.1008 18.3693 53.5747C16.5158 49.0486 15.589 43.9405 15.589 38.2505C15.589 33.0347 16.5158 28.1853 18.3693 23.7022C20.2229 19.2192 22.7446 15.3397 25.9344 12.0636C29.1674 8.78757 32.9176 6.22276 37.1851 4.3692C41.4957 2.51565 46.0865 1.58887 50.9574 1.58887C53.199 1.58887 55.4189 1.86906 57.6173 2.42943C59.8157 2.98981 61.9495 3.76572 64.0186 4.75716C66.0876 5.74859 68.049 6.91246 69.9025 8.24874C71.7992 9.58503 73.5665 11.0291 75.2046 12.5809L82.0584 4.3692H86.3259V64.7607Z" fill="white"/>
</svg>
