<svg xmlns="http://www.w3.org/2000/svg" width="255" height="37.158" viewBox="0 0 255 37.158"><path d="M4.476-5.192v.357A10.237,10.237,0,0,1,7.388-6.478a9.752,9.752,0,0,1,3.359-.572,14.357,14.357,0,0,1,1.688.107,7.378,7.378,0,0,1,1.661.384,3.525,3.525,0,0,1,1.259.759,1.66,1.66,0,0,1,.5,1.251,1.773,1.773,0,0,1-.152.732,2.072,2.072,0,0,1-.4.6,1.759,1.759,0,0,1-.59.4,1.868,1.868,0,0,1-.732.143,2,2,0,0,1-.786-.2,6.576,6.576,0,0,0-2.447-.447A6.133,6.133,0,0,0,8.3-2.825,6.249,6.249,0,0,0,4.967.507a6.133,6.133,0,0,0-.491,2.447V11.1a1.79,1.79,0,0,1-.545,1.313,1.79,1.79,0,0,1-1.313.545,1.811,1.811,0,0,1-1.331-.545A1.79,1.79,0,0,1,.742,11.1V-5.192a1.79,1.79,0,0,1,.545-1.313A1.811,1.811,0,0,1,2.618-7.05a1.79,1.79,0,0,1,1.313.545A1.79,1.79,0,0,1,4.476-5.192Zm33.5,8.146a9.564,9.564,0,0,1-2.93,7.074,9.716,9.716,0,0,1-7.074,2.93,9.639,9.639,0,0,1-7.074-2.93,9.639,9.639,0,0,1-2.93-7.074,9.639,9.639,0,0,1,2.93-7.074,9.639,9.639,0,0,1,7.074-2.93,9.716,9.716,0,0,1,7.074,2.93A9.814,9.814,0,0,1,37.231-.887,10.285,10.285,0,0,1,37.972,2.954Zm-10-6.27a6.083,6.083,0,0,0-2.465.5A6.273,6.273,0,0,0,22.189.525a6.089,6.089,0,0,0-.491,2.43,6.089,6.089,0,0,0,.491,2.43A6.273,6.273,0,0,0,25.5,8.725a6.083,6.083,0,0,0,2.465.5,6.039,6.039,0,0,0,2.447-.5,6.356,6.356,0,0,0,1.992-1.358,6.445,6.445,0,0,0,1.34-1.992,6.025,6.025,0,0,0,.491-2.421A6.025,6.025,0,0,0,33.747.534a6.445,6.445,0,0,0-1.34-1.992,6.356,6.356,0,0,0-1.992-1.358A6.039,6.039,0,0,0,27.968-3.316ZM44.546-5.21A9.271,9.271,0,0,1,53.7-6.318a9.768,9.768,0,0,1,2.974,1.992A9.4,9.4,0,0,1,58.713-1.36a8.93,8.93,0,0,1,.75,3.635v8.807a1.811,1.811,0,0,1-.545,1.331,1.79,1.79,0,0,1-1.313.545,1.861,1.861,0,0,1-1.876-1.876V2.275A5.323,5.323,0,0,0,55.283.114,5.707,5.707,0,0,0,52.3-2.87a5.323,5.323,0,0,0-2.162-.447,5.4,5.4,0,0,0-2.171.438A5.682,5.682,0,0,0,44.984.114a5.416,5.416,0,0,0-.438,2.162v8.807A1.811,1.811,0,0,1,44,12.414a1.79,1.79,0,0,1-1.313.545,1.861,1.861,0,0,1-1.876-1.876V-5.174A1.819,1.819,0,0,1,41.357-6.5a1.8,1.8,0,0,1,1.331-.554A1.775,1.775,0,0,1,44-6.5,1.778,1.778,0,0,1,44.546-5.21ZM72.272-3.316a6.083,6.083,0,0,0-2.465.5A6.273,6.273,0,0,0,66.493.525,6.089,6.089,0,0,0,66,2.954a6.089,6.089,0,0,0,.491,2.43,6.273,6.273,0,0,0,3.314,3.341,6.083,6.083,0,0,0,2.465.5,6.039,6.039,0,0,0,2.447-.5,6.357,6.357,0,0,0,1.992-1.358,6.445,6.445,0,0,0,1.34-1.992,6.025,6.025,0,0,0,.491-2.421A6.025,6.025,0,0,0,78.051.534a6.445,6.445,0,0,0-1.34-1.992A6.357,6.357,0,0,0,74.72-2.816,6.039,6.039,0,0,0,72.272-3.316ZM78.543,11.1v-.357a10.237,10.237,0,0,1-2.912,1.644,9.752,9.752,0,0,1-3.359.572,9.639,9.639,0,0,1-7.074-2.93,9.639,9.639,0,0,1-2.93-7.074A9.639,9.639,0,0,1,65.2-4.12a9.639,9.639,0,0,1,7.074-2.93,9.716,9.716,0,0,1,7.074,2.93,9.639,9.639,0,0,1,2.93,7.074V11.1a1.86,1.86,0,0,1-1.858,1.858,1.811,1.811,0,0,1-1.331-.545A1.79,1.79,0,0,1,78.543,11.1Zm6.556-.018V-13.749a1.811,1.811,0,0,1,.545-1.331,1.811,1.811,0,0,1,1.331-.545,1.79,1.79,0,0,1,1.313.545,1.811,1.811,0,0,1,.545,1.331V.185L99.516-6.764a1.817,1.817,0,0,1,1-.286,1.868,1.868,0,0,1,.732.143,1.759,1.759,0,0,1,.59.4,2.072,2.072,0,0,1,.4.6,1.731,1.731,0,0,1,.152.715,1.665,1.665,0,0,1-.715,1.483L94.192,1.15,101.874,9.8a1.888,1.888,0,0,1,.518,1.3,1.731,1.731,0,0,1-.152.715,2.072,2.072,0,0,1-.4.6,1.759,1.759,0,0,1-.59.4,1.868,1.868,0,0,1-.732.143,1.73,1.73,0,0,1-1.251-.482L91.012,3.2,88.833,4.634v6.449a1.819,1.819,0,0,1-.545,1.322,1.775,1.775,0,0,1-1.313.554,1.8,1.8,0,0,1-1.331-.554A1.819,1.819,0,0,1,85.1,11.083Zm40.767-14.4a6.082,6.082,0,0,0-2.465.5A6.273,6.273,0,0,0,120.087.525a6.089,6.089,0,0,0-.491,2.43,6.089,6.089,0,0,0,.491,2.43A6.273,6.273,0,0,0,123.4,8.725a6.082,6.082,0,0,0,2.465.5,6.039,6.039,0,0,0,2.447-.5,6.356,6.356,0,0,0,1.992-1.358,6.446,6.446,0,0,0,1.34-1.992,6.025,6.025,0,0,0,.491-2.421,6.025,6.025,0,0,0-.491-2.421,6.446,6.446,0,0,0-1.34-1.992,6.356,6.356,0,0,0-1.992-1.358A6.039,6.039,0,0,0,125.866-3.316Zm6.27,14.077a9.59,9.59,0,0,1-6.27,2.2,9.639,9.639,0,0,1-7.074-2.93,9.639,9.639,0,0,1-2.93-7.074,9.639,9.639,0,0,1,2.93-7.074,9.639,9.639,0,0,1,7.074-2.93,9.716,9.716,0,0,1,7.074,2.93,9.639,9.639,0,0,1,2.93,7.074v9.933a7.423,7.423,0,0,1-.393,2.43,7.9,7.9,0,0,1-1.09,2.1,9.175,9.175,0,0,1-1.644,1.724,10.32,10.32,0,0,1-2.045,1.3,11.431,11.431,0,0,1-2.3.813,10.274,10.274,0,0,1-2.394.286,10.856,10.856,0,0,1-2.8-.366,10.632,10.632,0,0,1-2.608-1.081,10.5,10.5,0,0,1-2.26-1.769,10.791,10.791,0,0,1-1.742-2.358,1.708,1.708,0,0,1-.286-1,1.788,1.788,0,0,1,.536-1.331,1.834,1.834,0,0,1,1.34-.527,1.479,1.479,0,0,1,.884.25,5.113,5.113,0,0,1,.956,1.108,9.348,9.348,0,0,0,1.072,1.3,6.966,6.966,0,0,0,9.808.036,4.647,4.647,0,0,0,1.233-2.912Zm16.6-14.077a6.083,6.083,0,0,0-2.465.5A6.273,6.273,0,0,0,142.954.525a6.089,6.089,0,0,0-.491,2.43,6.089,6.089,0,0,0,.491,2.43,6.273,6.273,0,0,0,3.314,3.341,6.083,6.083,0,0,0,2.465.5,6.039,6.039,0,0,0,2.447-.5,6.356,6.356,0,0,0,1.992-1.358,6.445,6.445,0,0,0,1.34-1.992A6.025,6.025,0,0,0,155,2.954a6.025,6.025,0,0,0-.491-2.421,6.445,6.445,0,0,0-1.34-1.992,6.356,6.356,0,0,0-1.992-1.358A6.039,6.039,0,0,0,148.733-3.316ZM155,11.1v-.357a10.237,10.237,0,0,1-2.912,1.644,9.752,9.752,0,0,1-3.359.572,9.639,9.639,0,0,1-7.074-2.93,9.639,9.639,0,0,1-2.93-7.074,9.639,9.639,0,0,1,2.93-7.074,9.639,9.639,0,0,1,7.074-2.93,9.716,9.716,0,0,1,7.074,2.93,9.639,9.639,0,0,1,2.93,7.074V11.1a1.86,1.86,0,0,1-1.858,1.858,1.811,1.811,0,0,1-1.331-.545A1.79,1.79,0,0,1,155,11.1ZM165.311-5.21a9.271,9.271,0,0,1,9.156-1.108,9.768,9.768,0,0,1,2.974,1.992,9.4,9.4,0,0,1,2.037,2.966,8.93,8.93,0,0,1,.75,3.635v8.807a1.811,1.811,0,0,1-.545,1.331,1.79,1.79,0,0,1-1.313.545,1.861,1.861,0,0,1-1.876-1.876V2.275a5.323,5.323,0,0,0-.447-2.162,5.707,5.707,0,0,0-2.983-2.983,5.323,5.323,0,0,0-2.162-.447,5.4,5.4,0,0,0-2.171.438A5.682,5.682,0,0,0,165.749.114a5.416,5.416,0,0,0-.438,2.162v8.807a1.811,1.811,0,0,1-.545,1.331,1.79,1.79,0,0,1-1.313.545,1.861,1.861,0,0,1-1.876-1.876V-5.174a1.819,1.819,0,0,1,.545-1.322,1.8,1.8,0,0,1,1.331-.554,1.775,1.775,0,0,1,1.313.554A1.778,1.778,0,0,1,165.311-5.21Zm27.726,1.894a6.083,6.083,0,0,0-2.465.5A6.273,6.273,0,0,0,187.258.525a6.089,6.089,0,0,0-.491,2.43,6.089,6.089,0,0,0,.491,2.43,6.273,6.273,0,0,0,3.314,3.341,6.083,6.083,0,0,0,2.465.5,6.039,6.039,0,0,0,2.447-.5,6.356,6.356,0,0,0,1.992-1.358,6.445,6.445,0,0,0,1.34-1.992,6.025,6.025,0,0,0,.491-2.421,6.025,6.025,0,0,0-.491-2.421,6.445,6.445,0,0,0-1.34-1.992,6.356,6.356,0,0,0-1.992-1.358A6.039,6.039,0,0,0,193.037-3.316Zm6.27,14.417v-.357a10.237,10.237,0,0,1-2.912,1.644,9.752,9.752,0,0,1-3.359.572,9.639,9.639,0,0,1-7.074-2.93,9.639,9.639,0,0,1-2.93-7.074,9.639,9.639,0,0,1,2.93-7.074,9.639,9.639,0,0,1,7.074-2.93,9.716,9.716,0,0,1,7.074,2.93,9.639,9.639,0,0,1,2.93,7.074V11.1a1.86,1.86,0,0,1-1.858,1.858,1.81,1.81,0,0,1-1.331-.545A1.79,1.79,0,0,1,199.308,11.1Zm6.735-18.15h.84v-6.717a1.79,1.79,0,0,1,.545-1.313,1.811,1.811,0,0,1,1.331-.545,1.79,1.79,0,0,1,1.313.545,1.79,1.79,0,0,1,.545,1.313V-7.05h2.233a1.76,1.76,0,0,1,1.3.545,1.8,1.8,0,0,1,.536,1.313,1.826,1.826,0,0,1-.536,1.331,1.76,1.76,0,0,1-1.3.545h-2.233V5.67q0,3.555,3.573,3.555a1.76,1.76,0,0,1,1.3.545,1.8,1.8,0,0,1,.536,1.313,1.826,1.826,0,0,1-.536,1.331,1.76,1.76,0,0,1-1.3.545q-7.307,0-7.307-7.289V-3.316h-.84a1.769,1.769,0,0,1-1.3-.545,1.811,1.811,0,0,1-.545-1.331,1.79,1.79,0,0,1,.545-1.313A1.769,1.769,0,0,1,206.043-7.05Zm16.2,1.858v.357a10.237,10.237,0,0,1,2.912-1.644,9.752,9.752,0,0,1,3.359-.572,14.357,14.357,0,0,1,1.688.107,7.378,7.378,0,0,1,1.661.384,3.525,3.525,0,0,1,1.259.759,1.66,1.66,0,0,1,.5,1.251,1.773,1.773,0,0,1-.152.732,2.072,2.072,0,0,1-.4.6,1.759,1.759,0,0,1-.59.4,1.868,1.868,0,0,1-.732.143,2,2,0,0,1-.786-.2,6.576,6.576,0,0,0-2.447-.447,6.133,6.133,0,0,0-2.447.491A6.249,6.249,0,0,0,222.737.507a6.133,6.133,0,0,0-.491,2.447V11.1a1.86,1.86,0,0,1-1.858,1.858,1.811,1.811,0,0,1-1.331-.545,1.79,1.79,0,0,1-.545-1.313V-5.192a1.79,1.79,0,0,1,.545-1.313,1.811,1.811,0,0,1,1.331-.545,1.79,1.79,0,0,1,1.313.545A1.79,1.79,0,0,1,222.246-5.192Zm23.492,1.876a6.083,6.083,0,0,0-2.465.5A6.273,6.273,0,0,0,239.959.525a6.089,6.089,0,0,0-.491,2.43,6.089,6.089,0,0,0,.491,2.43,6.273,6.273,0,0,0,3.314,3.341,6.083,6.083,0,0,0,2.465.5,6.038,6.038,0,0,0,2.447-.5,6.356,6.356,0,0,0,1.992-1.358,6.444,6.444,0,0,0,1.34-1.992,6.025,6.025,0,0,0,.491-2.421,6.025,6.025,0,0,0-.491-2.421,6.444,6.444,0,0,0-1.34-1.992,6.356,6.356,0,0,0-1.992-1.358A6.038,6.038,0,0,0,245.738-3.316Zm6.27,14.417v-.357a10.236,10.236,0,0,1-2.912,1.644,9.752,9.752,0,0,1-3.359.572,9.639,9.639,0,0,1-7.074-2.93,9.639,9.639,0,0,1-2.93-7.074,9.639,9.639,0,0,1,2.93-7.074,9.639,9.639,0,0,1,7.074-2.93,9.716,9.716,0,0,1,7.074,2.93,9.639,9.639,0,0,1,2.93,7.074V11.1a1.86,1.86,0,0,1-1.858,1.858,1.811,1.811,0,0,1-1.331-.545A1.79,1.79,0,0,1,252.008,11.1Z" transform="translate(-0.742 15.625)"/></svg>