<svg xmlns="http://www.w3.org/2000/svg" xmlns:xlink="http://www.w3.org/1999/xlink" width="256" height="256" viewBox="0 0 256 256"><defs><clipPath id="a"><rect width="256" height="256"/></clipPath></defs><g id="b" clip-path="url(#a)"><g clip-path="url(#a)"><g transform="translate(-106 -14.5)"><path d="M107.07,11.962a37.089,37.089,0,0,0-2.734-14.148A36.194,36.194,0,0,0,96.853-13.8a34.815,34.815,0,0,0-11.225-7.744,34.443,34.443,0,0,0-27.343,0A34.815,34.815,0,0,0,47.059-13.8,36.194,36.194,0,0,0,39.576-2.186a37.089,37.089,0,0,0-2.734,14.148V86.424H0V11.962a75.137,75.137,0,0,1,5.613-29.04,75,75,0,0,1,15.4-23.679,72.2,72.2,0,0,1,22.88-15.935A68.435,68.435,0,0,1,71.956-62.5a68.435,68.435,0,0,1,28.063,5.808A72.2,72.2,0,0,1,122.9-40.757a75,75,0,0,1,15.4,23.679,75.137,75.137,0,0,1,5.613,29.04Z" transform="translate(218.088 93)"/><path d="M74.462,160.886a72.936,72.936,0,0,1-29.04-5.808A74.382,74.382,0,0,1,5.808,115.465,72.935,72.935,0,0,1,0,86.424H38.125a36.338,36.338,0,1,0,72.676,0V77.191a73.794,73.794,0,0,1-36.338,9.233,72.935,72.935,0,0,1-29.04-5.808A74.382,74.382,0,0,1,5.808,41,72.935,72.935,0,0,1,0,11.962a72.935,72.935,0,0,1,5.808-29.04A74.382,74.382,0,0,1,45.422-56.692,72.935,72.935,0,0,1,74.462-62.5a72.935,72.935,0,0,1,29.04,5.808,74.382,74.382,0,0,1,39.614,39.614,72.935,72.935,0,0,1,5.808,29.04V86.424a72.935,72.935,0,0,1-5.808,29.04A74.382,74.382,0,0,1,103.5,155.078a72.936,72.936,0,0,1-29.038,5.808Zm0-112.587A36.328,36.328,0,0,0,99.635,38.168,37.332,37.332,0,0,0,107.523,27,35.3,35.3,0,0,0,110.8,13.451V11.962a36,36,0,0,0-2.83-14.148A36.084,36.084,0,0,0,100.226-13.8,36.084,36.084,0,0,0,88.61-21.546a36.784,36.784,0,0,0-28.3,0A36.084,36.084,0,0,0,48.7-13.8,36.084,36.084,0,0,0,40.954-2.186a36,36,0,0,0-2.83,14.148,36,36,0,0,0,2.83,14.148A36.084,36.084,0,0,0,48.7,37.726,36.084,36.084,0,0,0,60.314,45.47,36,36,0,0,0,74.462,48.3Z" transform="translate(106 93)"/></g></g></g></svg>